<?xml version="1.0" encoding="iso-8859-1"?>
<!-- Generator: Adobe Illustrator 17.1.0, SVG Export Plug-In . SVG Version: 6.00 Build 0)  -->
<!DOCTYPE svg PUBLIC "-//W3C//DTD SVG 1.1//EN" "http://www.w3.org/Graphics/SVG/1.1/DTD/svg11.dtd">
<svg version="1.1" id="Capa_1" xmlns="http://www.w3.org/2000/svg" xmlns:xlink="http://www.w3.org/1999/xlink" x="0px" y="0px"
	 viewBox="0 0 392.539 392.539" style="enable-background:new 0 0 392.539 392.539;" xml:space="preserve">
<g>
	<path d="M153.134,185.308c-9.694,0-17.551,7.859-17.551,17.553c0,9.695,7.857,17.554,17.551,17.554
		c9.697,0,17.555-7.859,17.555-17.554C170.688,193.168,162.831,185.308,153.134,185.308z"/>
	<circle cx="240.583" cy="202.862" r="17.554"/>
	<path d="M230.267,162.907c0-4.419-3.582-8-8-8h-51.996c-4.418,0-8,3.581-8,8c0,4.418,3.582,8,8,8h51.996
		C226.686,170.907,230.267,167.325,230.267,162.907z"/>
	<path d="M390.157,40.49c-0.006-0.034-0.013-0.068-0.02-0.102c-0.002-0.008-0.003-0.017-0.005-0.024
		c-0.024-0.118-0.059-0.231-0.088-0.348c-0.044-0.172-0.091-0.343-0.147-0.511c-0.057-0.174-0.116-0.348-0.184-0.516
		c-0.028-0.07-0.062-0.137-0.092-0.206c-0.069-0.158-0.141-0.316-0.219-0.469c-0.037-0.07-0.077-0.138-0.116-0.208
		c-0.081-0.145-0.164-0.288-0.253-0.427c-0.046-0.073-0.096-0.144-0.145-0.215c-0.088-0.128-0.179-0.254-0.273-0.376
		c-0.059-0.076-0.119-0.15-0.18-0.223c-0.092-0.11-0.186-0.217-0.284-0.321c-0.072-0.077-0.143-0.154-0.218-0.229
		c-0.094-0.093-0.192-0.183-0.292-0.271c-0.083-0.075-0.166-0.151-0.252-0.224c-0.101-0.083-0.206-0.16-0.311-0.238
		c-0.111-0.082-0.221-0.165-0.336-0.242c-0.169-0.113-0.341-0.222-0.518-0.321c-0.089-0.051-0.184-0.094-0.275-0.142
		c-0.129-0.066-0.259-0.133-0.392-0.192c-0.091-0.041-0.185-0.077-0.278-0.114c-0.145-0.058-0.292-0.114-0.441-0.164
		c-0.086-0.028-0.173-0.056-0.261-0.082c-0.166-0.049-0.334-0.092-0.504-0.131c-0.051-0.012-0.1-0.029-0.152-0.04
		c-0.03-0.006-0.06-0.008-0.09-0.014c-0.174-0.034-0.351-0.06-0.529-0.082c-0.082-0.011-0.165-0.024-0.247-0.032
		c-0.164-0.016-0.331-0.021-0.497-0.027c-0.201-0.006-0.399-0.005-0.598,0.003c-0.127,0.005-0.255,0.007-0.381,0.018
		c-0.125,0.011-0.249,0.032-0.373,0.049c-0.122,0.017-0.245,0.032-0.366,0.054c-0.114,0.021-0.226,0.049-0.339,0.075
		c-0.129,0.03-0.259,0.06-0.386,0.097c-0.103,0.029-0.205,0.063-0.307,0.096c-0.135,0.044-0.268,0.091-0.4,0.143
		c-0.093,0.036-0.185,0.073-0.276,0.113c-0.137,0.059-0.272,0.123-0.405,0.189c-0.083,0.042-0.166,0.083-0.248,0.127
		c-0.14,0.076-0.276,0.158-0.411,0.242c-0.071,0.044-0.143,0.086-0.212,0.132c-0.152,0.102-0.298,0.21-0.442,0.322
		c-0.048,0.037-0.099,0.07-0.146,0.108c-0.185,0.15-0.365,0.308-0.536,0.475c-0.058,0.055-0.11,0.116-0.165,0.173
		c-0.112,0.115-0.223,0.229-0.327,0.351c-0.07,0.081-0.135,0.166-0.201,0.25c-0.084,0.105-0.167,0.211-0.246,0.321
		c-0.066,0.093-0.129,0.188-0.191,0.284c-0.071,0.109-0.14,0.22-0.206,0.333c-0.058,0.099-0.114,0.2-0.168,0.302
		c-0.064,0.121-0.123,0.243-0.18,0.368c-0.046,0.099-0.092,0.198-0.135,0.3c-0.06,0.145-0.113,0.294-0.165,0.443
		c-0.03,0.086-0.063,0.171-0.09,0.259c-0.075,0.242-0.14,0.487-0.192,0.739c-11.02,53.182-36.664,79.034-78.396,79.034h-18.096
		H114.565c-0.046,0-0.09,0.006-0.135,0.007H96.469c-41.732,0-67.376-25.853-78.396-79.035c-0.052-0.252-0.118-0.499-0.193-0.741
		c-0.026-0.085-0.059-0.167-0.087-0.251c-0.053-0.152-0.107-0.305-0.168-0.453c-0.041-0.099-0.086-0.194-0.13-0.29
		c-0.059-0.128-0.12-0.254-0.185-0.378c-0.053-0.1-0.108-0.197-0.164-0.293c-0.068-0.116-0.139-0.229-0.211-0.341
		c-0.062-0.094-0.123-0.187-0.188-0.278c-0.08-0.112-0.166-0.22-0.251-0.329c-0.065-0.081-0.128-0.164-0.196-0.242
		c-0.108-0.125-0.222-0.244-0.337-0.362c-0.053-0.054-0.102-0.111-0.156-0.163c-0.172-0.167-0.352-0.325-0.538-0.476
		c-0.046-0.038-0.096-0.071-0.144-0.107c-0.145-0.112-0.291-0.221-0.444-0.322c-0.069-0.046-0.141-0.088-0.211-0.132
		c-0.135-0.084-0.271-0.167-0.411-0.243c-0.082-0.044-0.166-0.086-0.249-0.127c-0.133-0.066-0.267-0.13-0.404-0.189
		c-0.092-0.04-0.185-0.078-0.278-0.114c-0.131-0.051-0.263-0.098-0.398-0.142c-0.102-0.034-0.205-0.067-0.309-0.097
		c-0.126-0.036-0.254-0.066-0.383-0.096c-0.114-0.026-0.227-0.054-0.342-0.076c-0.12-0.022-0.241-0.037-0.361-0.053
		c-0.126-0.018-0.25-0.038-0.377-0.05c-0.12-0.011-0.243-0.012-0.364-0.017c-0.205-0.009-0.411-0.011-0.619-0.004
		c-0.165,0.006-0.33,0.011-0.494,0.026C9.4,34.04,9.318,34.054,9.236,34.065c-0.178,0.022-0.355,0.048-0.529,0.083
		c-0.03,0.006-0.06,0.007-0.09,0.014c-0.051,0.011-0.1,0.028-0.151,0.039c-0.171,0.039-0.34,0.083-0.507,0.132
		c-0.086,0.026-0.173,0.053-0.258,0.081c-0.151,0.051-0.299,0.106-0.445,0.166c-0.091,0.037-0.184,0.072-0.273,0.112
		c-0.135,0.061-0.267,0.128-0.398,0.195c-0.09,0.046-0.183,0.089-0.27,0.139c-0.18,0.102-0.355,0.212-0.526,0.327
		c-0.111,0.075-0.217,0.155-0.324,0.234c-0.106,0.08-0.214,0.158-0.317,0.243c-0.085,0.071-0.166,0.146-0.249,0.221
		c-0.1,0.09-0.199,0.18-0.294,0.275c-0.074,0.073-0.145,0.149-0.215,0.226c-0.099,0.106-0.194,0.213-0.287,0.324
		c-0.061,0.073-0.121,0.146-0.179,0.221c-0.095,0.123-0.186,0.248-0.274,0.377C3.6,37.543,3.55,37.613,3.504,37.686
		c-0.089,0.139-0.172,0.283-0.252,0.427c-0.039,0.069-0.079,0.138-0.116,0.208c-0.079,0.153-0.15,0.31-0.219,0.469
		c-0.03,0.069-0.064,0.136-0.092,0.205c-0.067,0.167-0.126,0.34-0.182,0.513C2.584,39.682,2.536,39.86,2.49,40.04
		c-0.028,0.11-0.061,0.219-0.084,0.331c-0.001,0.007-0.003,0.015-0.004,0.022c-0.007,0.035-0.014,0.071-0.02,0.106
		C0.802,48.164,0,56.028,0,63.877c0,32.384,8.173,60.289,23.637,80.699c17.146,22.632,42.332,34.594,72.833,34.594h10.096v80.893
		c0,17.074,11.932,32.761,32.404,43.213c-2.253,4.36-3.483,9.074-3.483,14.021c0,23.129,26.699,41.247,60.783,41.247
		s60.783-18.118,60.783-41.247c0-4.949-1.231-9.665-3.486-14.027c20.46-10.455,32.408-26.164,32.408-43.207v-80.9h10.096
		c30.501,0,55.685-11.962,72.832-34.594c15.463-20.411,23.637-48.315,23.637-80.698C392.539,56.018,391.737,48.153,390.157,40.49z
		 M96.469,163.171c-49.22,0-72.156-35.303-78.544-74.74c0.011,0.021,0.023,0.042,0.035,0.063c0.042,0.079,0.087,0.154,0.129,0.232
		c0.569,1.05,1.152,2.08,1.743,3.095c0.19,0.325,0.382,0.646,0.574,0.968c0.477,0.8,0.96,1.588,1.45,2.365
		c0.191,0.303,0.381,0.609,0.575,0.909c0.668,1.035,1.344,2.056,2.037,3.049c0.029,0.041,0.059,0.081,0.088,0.123
		c0.665,0.95,1.343,1.877,2.031,2.789c0.215,0.286,0.434,0.567,0.652,0.849c0.534,0.692,1.075,1.374,1.622,2.043
		c0.221,0.27,0.44,0.543,0.664,0.809c0.75,0.896,1.507,1.779,2.282,2.633c16.263,17.948,38.018,27.048,64.663,27.048h10.096v27.765
		H96.469z M196.27,342.544c-19.985,0-37.406-7.839-42.942-18.245c1.713,0.969,3.688,1.528,5.796,1.528
		c6.52,0,11.805-5.285,11.805-11.805c0-6.047-4.553-11.026-10.417-11.715c8.253-6.179,21.341-10.258,35.759-10.258
		c13.483,0,25.798,3.57,34.088,9.087c-5.035,1.349-8.747,5.93-8.747,11.389c0,6.519,5.285,11.805,11.804,11.805
		c2.509,0,4.83-0.789,6.742-2.123C235.973,333.638,217.574,342.544,196.27,342.544z M269.974,260.064
		c0,11.638-10.012,22.874-27.004,30.561c-11.064-8.961-27.735-14.576-46.7-14.576c-18.966,0-35.637,5.615-46.702,14.576
		c-17-7.684-27.002-18.896-27.002-30.562V135.399h147.408V260.064z M296.07,163.164h-10.096v-27.765h10.096
		c26.645,0,48.4-9.101,64.663-27.049c0.774-0.854,1.532-1.736,2.281-2.632c0.223-0.267,0.443-0.54,0.665-0.811
		c0.547-0.669,1.088-1.351,1.622-2.043c0.218-0.282,0.436-0.563,0.652-0.849c0.686-0.911,1.364-1.836,2.027-2.785
		c0.03-0.043,0.061-0.084,0.092-0.128c0.692-0.993,1.369-2.013,2.036-3.047c0.194-0.301,0.385-0.608,0.577-0.913
		c0.488-0.774,0.97-1.559,1.445-2.355c0.194-0.326,0.39-0.651,0.582-0.98c0.581-0.997,1.152-2.008,1.711-3.039
		c0.053-0.098,0.109-0.193,0.162-0.291c0.01-0.018,0.02-0.036,0.03-0.054C368.228,127.863,345.293,163.164,296.07,163.164z"/>
</g>
<g>
</g>
<g>
</g>
<g>
</g>
<g>
</g>
<g>
</g>
<g>
</g>
<g>
</g>
<g>
</g>
<g>
</g>
<g>
</g>
<g>
</g>
<g>
</g>
<g>
</g>
<g>
</g>
<g>
</g>
</svg>
